<svg xmlns="http://www.w3.org/2000/svg" viewBox="0 0 550 550"><circle cx="406.275" cy="142.139" r="82.188" fill="none" stroke="#fff" stroke-linecap="round" stroke-linejoin="round" stroke-miterlimit="10" stroke-width="20" class="colorStroke231f20 svgStroke"></circle><path fill="none" stroke="#fff" stroke-linecap="round" stroke-linejoin="round" stroke-miterlimit="10" stroke-width="20" d="M406.275 16.392v43.561M406.275 224.327v43.56M532.022 142.139h-43.559M324.088 142.139h-43.561M486.672 61.744l-22.281 22.281M348.16 200.254l-22.281 22.282M325.878 61.745l22.282 22.28M464.391 200.256l22.281 22.281M143.384 136.547c-67.165 0-121.614 54.447-121.614 121.613h243.229c-.001-67.165-54.45-121.613-121.615-121.613z" class="colorStroke231f20 svgStroke"></path><path fill="none" stroke="#fff" stroke-linecap="round" stroke-linejoin="round" stroke-miterlimit="10" stroke-width="20" d="M88.531 258.161h109.704c-.718-67.441-25-121.613-54.852-121.613h0c-29.851-.001-54.133 54.17-54.852 121.613z" class="colorStroke231f20 svgStroke"></path><path fill="none" stroke="#fff" stroke-linecap="round" stroke-miterlimit="10" stroke-width="20" d="M18.841 529.156h512.013M499.854 457c0 6.904-5.597 12.5-12.5 12.5h-294c-6.903 0-12.5-5.596-12.5-12.5h0c0-6.902 5.597-12.5 12.5-12.5h294c6.903 0 12.5 5.598 12.5 12.5h0zM217.188 469.312l-36.334 59.626M471.854 469.312l36.334 59.626M180.914 356.963l52.274 86.975" class="colorStroke231f20 svgStroke"></path><path fill="none" stroke="#fff" stroke-linecap="round" stroke-linejoin="round" stroke-miterlimit="10" stroke-width="20" d="M325.025 444.152 302.854 407.5H211.5" class="colorStroke231f20 svgStroke"></path><path fill="none" stroke="#fff" stroke-linecap="round" stroke-linejoin="round" stroke-miterlimit="10" stroke-width="17" d="M143 258.5v271" class="colorStroke231f20 svgStroke"></path></svg>