<svg width="19" height="14" viewBox="0 0 19 14" fill="none" xmlns="http://www.w3.org/2000/svg">
<path id="remove_red_eye" d="M9.5641 4.32387C10.2287 4.33313 10.8635 4.60126 11.3335 5.07125C11.8035 5.54124 12.0716 6.17602 12.0808 6.84062C12.0716 7.50522 11.8035 8.14 11.3335 8.60999C10.8635 9.07997 10.2287 9.3481 9.5641 9.35736C8.8995 9.3481 8.26472 9.07997 7.79473 8.60999C7.32474 8.14 7.05661 7.50522 7.04735 6.84062C7.05661 6.17602 7.32474 5.54124 7.79473 5.07125C8.26472 4.60126 8.8995 4.33313 9.5641 4.32387ZM9.5641 11.0471C10.1173 11.0547 10.6663 10.9486 11.1768 10.7354C11.6874 10.5223 12.1488 10.2065 12.5324 9.80781C12.9306 9.42377 13.246 8.9623 13.4591 8.45181C13.6722 7.94132 13.7786 7.39261 13.7718 6.83946C13.7793 6.28621 13.6732 5.7373 13.4601 5.22671C13.2469 4.71613 12.9312 4.25474 12.5324 3.87111C12.1485 3.47284 11.687 3.15741 11.1765 2.94426C10.666 2.73112 10.1173 2.62478 9.5641 2.6318C9.01092 2.62478 8.46217 2.73112 7.95167 2.94426C7.44116 3.15741 6.9797 3.47284 6.59575 3.87111C6.19703 4.25474 5.88131 4.71613 5.66813 5.22671C5.45496 5.7373 5.34887 6.28621 5.35643 6.83946C5.34955 7.39261 5.45595 7.94132 5.66909 8.45181C5.88222 8.9623 6.19758 9.42377 6.59575 9.80781C6.97937 10.2065 7.44076 10.5223 7.95135 10.7354C8.46193 10.9486 9.01085 11.0547 9.5641 11.0471ZM9.5641 0.549332C11.5724 0.530951 13.537 1.13629 15.1866 2.28183C16.832 3.3949 18.095 4.98733 18.8041 6.84293C18.095 8.69853 16.832 10.291 15.1866 11.404C13.537 12.5496 11.5724 13.1549 9.5641 13.1365C7.55577 13.1549 5.59124 12.5496 3.94156 11.404C2.29583 10.2903 1.03282 8.69706 0.324097 6.84062C1.03323 4.98502 2.2962 3.39259 3.94156 2.27952C5.59124 1.13398 7.55577 0.528641 9.5641 0.547022V0.549332Z" fill="#737476"/>
</svg>
