<svg width="14" height="19" viewBox="0 0 14 19" fill="none" xmlns="http://www.w3.org/2000/svg">
<path d="M9.52178 6.86869V5.14073C9.52527 4.79198 9.45718 4.44621 9.32173 4.12482C9.18629 3.80342 8.98635 3.51322 8.7343 3.27216C8.49045 3.02406 8.19963 2.827 7.87881 2.69249C7.55799 2.55798 7.2136 2.4887 6.86572 2.4887C6.51784 2.4887 6.17345 2.55798 5.85263 2.69249C5.53181 2.827 5.241 3.02406 4.99714 3.27216C4.74509 3.51322 4.54516 3.80342 4.40971 4.12482C4.27426 4.44621 4.20617 4.79198 4.20966 5.14073V6.86869H9.52178ZM6.8691 14.5826C7.21078 14.5871 7.54594 14.4888 7.83105 14.3005C8.11616 14.1121 8.33807 13.8424 8.46796 13.5263C8.59786 13.2102 8.62974 12.8624 8.55948 12.528C8.48922 12.1936 8.32005 11.888 8.07394 11.6509C7.91704 11.4869 7.72894 11.3558 7.52068 11.2654C7.31243 11.1751 7.08822 11.1272 6.86122 11.1247C6.63422 11.1221 6.40899 11.165 6.19878 11.2507C5.98856 11.3364 5.79758 11.4632 5.63706 11.6238C5.47653 11.7843 5.34969 11.9753 5.26399 12.1855C5.17828 12.3957 5.13544 12.6209 5.13797 12.8479C5.14051 13.0749 5.18837 13.2991 5.27874 13.5074C5.36911 13.7156 5.50018 13.9037 5.66425 14.0606C5.81884 14.2252 6.00548 14.3565 6.21268 14.4462C6.41989 14.536 6.64328 14.5824 6.8691 14.5826ZM12.0113 6.86869C12.2354 6.86814 12.4574 6.91222 12.6642 6.99836C12.8711 7.08451 13.0587 7.21099 13.2162 7.37043C13.3815 7.52043 13.5133 7.70351 13.6033 7.90778C13.6932 8.11206 13.7392 8.33296 13.7382 8.55615V17.1543C13.7392 17.3775 13.6932 17.5984 13.6033 17.8027C13.5133 18.007 13.3815 18.19 13.2162 18.34C13.0587 18.4995 12.8711 18.626 12.6642 18.7121C12.4574 18.7982 12.2354 18.8423 12.0113 18.8418H1.72685C1.50245 18.8417 1.28031 18.7969 1.07343 18.71C0.866548 18.6231 0.679082 18.4958 0.522002 18.3355C0.356733 18.1855 0.224854 18.0025 0.134927 17.7982C0.0449999 17.5939 -0.000965203 17.373 1.53645e-05 17.1498V8.55615C-0.000807346 8.33315 0.045234 8.11246 0.135156 7.90839C0.225078 7.70433 0.356874 7.52143 0.522002 7.37155C0.679457 7.21211 0.867091 7.08563 1.07395 6.99949C1.28082 6.91334 1.50277 6.86926 1.72685 6.86982H2.57058V5.14073C2.5625 4.5748 2.67066 4.01322 2.88835 3.49076C3.10604 2.9683 3.42864 2.49608 3.83617 2.10331C4.22901 1.69741 4.70071 1.37615 5.22229 1.15928C5.74386 0.942412 6.30428 0.834511 6.8691 0.842216C7.43506 0.833942 7.9967 0.942006 8.51918 1.15971C9.04167 1.37741 9.51387 1.70011 9.90652 2.10781C10.3139 2.5007 10.6364 2.97295 10.8541 3.49538C11.0717 4.01781 11.18 4.57932 11.1721 5.14523V6.86869H12.0158H12.0113Z" fill="#737476"/>
</svg>
