<svg width="510" height="49" viewBox="0 0 510 49" fill="none" xmlns="http://www.w3.org/2000/svg">
<g clip-path="url(#clip0_4036_139)">
<path d="M459.955 24.677C459.955 29.8447 455.764 34.0353 450.596 34.0353C445.428 34.0353 441.237 29.8469 441.237 24.677C441.237 19.5071 445.428 15.3186 450.596 15.3186C455.764 15.3186 459.955 19.5092 459.955 24.677Z" fill="#939598"/>
<path d="M500.624 15.4554C495.817 15.4554 491.611 19.2834 491.611 24.7986C491.611 29.9815 495.456 34.1699 501.015 34.1699C505.102 34.1699 508.498 32.029 509.669 28.2032H504.29C503.78 29.0478 502.461 29.5081 501.109 29.5081C498.464 29.5081 497.148 27.6864 497.057 26.5703H509.938C510.539 20.1823 506.663 15.4554 500.622 15.4554H500.624ZM497.059 22.8987C497.419 20.9705 499.274 19.9153 500.776 19.9153C502.609 19.9153 504.166 20.9097 504.527 22.8987H497.059Z" fill="white"/>
<path d="M430.167 15.4706C425.36 15.4706 421.154 19.2986 421.154 24.8138C421.154 29.9967 424.999 34.1851 430.558 34.1851C434.645 34.1851 438.041 32.0442 439.211 28.2184H433.833C433.323 29.063 432.004 29.5233 430.654 29.5233C428.009 29.5233 426.691 27.7016 426.602 26.5855H439.483C440.084 20.1975 436.208 15.4706 430.167 15.4706ZM426.6 22.916C426.96 20.9879 428.815 19.9326 430.317 19.9326C432.15 19.9326 433.707 20.9271 434.067 22.916H426.6Z" fill="white"/>
<path d="M483.9 9.98586H489.732V33.7335H483.9V9.98586Z" fill="white"/>
<path d="M404.596 32.0355H404.659C405.815 33.3427 407.58 34.0201 409.365 34.1613C409.686 34.1699 409.929 34.1699 410.099 34.1699C415.267 34.1699 419.458 29.9836 419.458 24.8159C419.458 19.6482 415.267 15.4554 410.099 15.4554C408.069 15.4554 405.973 16.1046 404.659 17.5876H404.594V15.8918H399.268V39.672H404.594V32.0355H404.596ZM409.363 20.1172C411.997 20.1172 414.131 22.2212 414.131 24.8138C414.131 27.4063 411.997 29.5103 409.363 29.5103C406.729 29.5103 404.594 27.4085 404.594 24.8138C404.594 22.219 406.729 20.1172 409.363 20.1172Z" fill="white"/>
<path d="M467.162 32.0355H467.225C468.381 33.3427 470.146 34.0201 471.931 34.1613C472.252 34.1699 472.495 34.1699 472.667 34.1699C477.835 34.1699 482.026 29.9836 482.026 24.8159C482.026 19.6482 477.835 15.4554 472.667 15.4554C470.637 15.4554 468.541 16.1046 467.228 17.5876H467.162V15.8918H461.836V39.672H467.162V32.0355ZM471.927 20.1172C474.561 20.1172 476.695 22.2212 476.695 24.8138C476.695 27.4063 474.561 29.5103 471.927 29.5103C469.293 29.5103 467.158 27.4085 467.158 24.8138C467.158 22.219 469.293 20.1172 471.927 20.1172Z" fill="white"/>
<path d="M388.011 15.4554C383.203 15.4554 378.997 19.2834 378.997 24.7986C378.997 29.9815 382.843 34.1699 388.402 34.1699C392.488 34.1699 395.885 32.029 397.055 28.2032H391.676C391.166 29.0478 389.848 29.5081 388.497 29.5081C385.852 29.5081 384.536 27.6864 384.445 26.5725H397.326C397.928 20.1845 394.052 15.4576 388.013 15.4576M384.445 22.8987C384.806 20.9705 386.66 19.9153 388.163 19.9153C389.996 19.9153 391.552 20.9097 391.913 22.8987H384.445Z" fill="white"/>
<path d="M365.908 15.8918H371.566V19.0576H371.636C372.494 16.7951 374.483 15.755 376.986 15.755C377.432 15.755 377.914 15.7898 378.359 15.8918V21.1312C377.605 20.9249 376.917 20.862 376.129 20.862C373.247 20.862 371.738 22.6902 371.738 24.9223V33.7357H365.908V15.8918Z" fill="white"/>
<path d="M357.836 15.8897V17.1968H357.771C356.238 16.1003 354.36 15.4554 352.332 15.4554C347.164 15.4554 342.975 19.6439 342.975 24.8116C342.975 29.9793 347.164 34.1699 352.332 34.1699C354.362 34.1699 356.238 33.5251 357.771 32.4264H357.836V33.7335H363.163V15.8897H357.836ZM353.068 29.5081C350.434 29.5081 348.299 27.4063 348.299 24.8138C348.299 22.2212 350.434 20.1172 353.068 20.1172C355.702 20.1172 357.836 22.219 357.836 24.8138C357.836 27.4085 355.702 29.5081 353.068 29.5081Z" fill="white"/>
<path d="M259.433 27.6625C259.615 28.9566 260.644 29.8903 262.464 29.8903C263.889 29.8903 264.829 29.2584 264.829 28.5354C264.829 27.6625 263.828 27.3607 261.98 26.9395C258.946 26.2468 254.612 25.4934 254.612 21.3331C254.612 18.0175 257.494 15.4576 262.193 15.4576C266.134 15.4576 269.682 17.6289 269.712 21.6957H264.801C264.649 20.7621 263.952 19.7676 262.041 19.7676C260.525 19.7676 259.828 20.3713 259.828 21.0031C259.828 23.3221 270.105 21.4547 270.105 28.2944C270.105 31.6382 267.165 34.1699 262.284 34.1699C257.402 34.1699 254.584 31.8206 254.189 27.6625H259.435H259.433Z" fill="white"/>
<path d="M280.804 15.4532C275.636 15.4532 271.445 19.6439 271.445 24.8116C271.445 29.9793 275.636 34.1699 280.804 34.1699C285.972 34.1699 290.163 29.9815 290.163 24.8116C290.163 19.6417 285.974 15.4532 280.804 15.4532ZM280.804 29.5081C278.209 29.5081 276.107 27.4063 276.107 24.8116C276.107 22.2169 278.209 20.115 280.804 20.115C283.399 20.115 285.499 22.2169 285.499 24.8116C285.499 27.4063 283.397 29.5081 280.804 29.5081Z" fill="white"/>
<path d="M311.432 15.8897H314.036V20.1172H311.432V33.7357H305.6V20.1172H302.996V15.8897H305.6V10.913H311.432V15.8897Z" fill="white"/>
<path d="M321.189 15.8897L323.858 26.7679H323.923L326.85 15.8897H331.349L334.309 26.7679H334.372L337.04 15.8897H342.973L337.507 33.7357H332.122L329.132 22.4123H329.067L326.077 33.7357H320.692L315.226 15.8897H321.189Z" fill="white"/>
<path d="M292.875 20.1172H291.132V15.8897H292.875V14.7953C293.125 9.77959 297.338 9.33013 299.943 9.33013H301.62V13.3492H300.104C299.654 13.3492 298.708 13.5099 298.708 15.0211V15.8897H301.617V20.1172H298.708V33.7357H292.875V20.1172Z" fill="white"/>
<path d="M248.745 0H244.437V49H248.745V0Z" fill="white"/>
<path d="M81.0349 9.95981H86.3658V17.5203C86.4331 17.4617 86.4592 17.4465 86.4722 17.4248C87.0672 16.4542 87.9575 15.8875 89.0411 15.6334C90.8672 15.2057 92.6587 15.3143 94.3893 16.0742C94.9995 16.3413 95.5076 16.7473 95.9419 17.2532C96.8387 18.302 97.3273 19.5201 97.4381 20.8837C97.5054 21.7131 97.5423 22.5447 97.5445 23.3763C97.5553 26.6767 97.5488 29.9771 97.5488 33.2775V33.6401C97.3078 33.7118 92.7499 33.7357 92.1983 33.6727C92.194 33.5576 92.1853 33.4382 92.1853 33.3166C92.1853 30.09 92.1853 26.8613 92.1853 23.6347C92.1853 23.0072 92.0876 22.3906 91.8705 21.7978C91.4752 20.7252 90.6436 20.1194 89.4971 20.0955C89.167 20.089 88.8283 20.1129 88.5069 20.1802C87.558 20.3799 86.9543 20.9857 86.6373 21.8847C86.431 22.4709 86.3723 23.0789 86.3723 23.6977C86.3723 26.8939 86.3723 30.09 86.3723 33.2862V33.6771H81.0393V9.95981H81.0349Z" fill="white"/>
<path d="M121.428 26.5356H126.255C125.873 29.5516 122.892 33.8768 117.5 34.1178C112.373 34.3458 108.23 30.5091 107.77 25.6823C107.266 20.3995 111.101 16.059 115.913 15.4749C121.324 14.817 125.478 18.6646 126.253 22.8552C126.164 22.8639 126.077 22.8813 125.988 22.8813C124.54 22.8813 123.092 22.8813 121.643 22.8856C121.452 22.8856 121.352 22.8248 121.261 22.6533C120.571 21.344 119.507 20.5124 118.054 20.191C115.572 19.6395 113.023 21.3027 112.514 23.7954C111.976 26.4379 113.709 28.9349 116.33 29.3779C118.395 29.7274 120.395 28.6657 121.315 26.7853C121.352 26.7115 121.385 26.6333 121.428 26.5378V26.5356Z" fill="white"/>
<path d="M212.783 9.96415H218.612V33.6836H212.783V9.96415Z" fill="white"/>
<path d="M28.8007 33.6879H23.0029C22.94 33.4382 22.9269 16.198 22.9921 15.8527H28.6378V18.8969C28.6596 18.9013 28.6813 18.9056 28.703 18.91C28.7247 18.8687 28.7508 18.8296 28.7681 18.7884C29.4673 17.1555 30.7333 16.2219 32.44 15.8549C33.3217 15.666 34.2163 15.6465 35.1109 15.7768C35.2108 15.792 35.3085 15.8202 35.4106 15.8419V21.0661C34.9611 20.9988 34.5333 20.9141 34.099 20.8728C33.1479 20.7795 32.2012 20.8012 31.2979 21.1551C29.8083 21.7413 29.0005 22.8531 28.842 24.4338C28.8072 24.7855 28.8029 25.1395 28.8029 25.4934C28.8007 28.0946 28.8029 30.698 28.8029 33.2992V33.6879H28.8007Z" fill="white"/>
<path d="M100.068 15.8549H105.881V33.6792H100.068V15.8549Z" fill="white"/>
<path d="M100.066 14.0658V9.99889C100.291 9.92941 105.466 9.90987 105.879 9.97935V14.0658H100.066Z" fill="white"/>
<path d="M20.2343 27.7081C20.2343 23.8866 20.2343 20.0651 20.2343 16.2458C20.2343 16.1155 20.2256 15.9852 20.2213 15.8593H14.8752V17.4921C14.8187 17.4725 14.7948 17.4726 14.7818 17.4595C14.7427 17.427 14.7036 17.39 14.6667 17.3531C14.0174 16.68 13.2335 16.2175 12.3606 15.9027C10.8341 15.3533 9.2663 15.2535 7.68114 15.5575C5.05369 16.0634 2.99732 17.4465 1.52291 19.6786C0.497982 21.2311 0.0311194 22.9595 0.000719112 24.8094C-0.00579524 25.2024 0.0419767 25.5976 0.096263 25.9884C0.385066 28.0772 1.24713 29.9011 2.75846 31.3733C5.14272 33.6966 8.00686 34.5412 11.2771 33.942C12.5821 33.7031 13.7417 33.1234 14.6841 32.1615C14.7297 32.1137 14.7883 32.079 14.8773 32.0073C14.8708 32.5263 14.823 32.9866 14.7123 33.4404C14.3301 34.9929 13.4398 36.0959 11.872 36.5519C10.4389 36.9709 9.02744 36.8537 7.66811 36.2327C7.19691 36.0177 6.77782 35.7246 6.52159 35.2578C6.43907 35.1079 6.3457 35.058 6.1785 35.0602C4.37619 35.0667 2.57172 35.0623 0.769413 35.0645C0.691241 35.0645 0.61524 35.0841 0.537068 35.0927C0.54141 35.1492 0.539239 35.1796 0.545753 35.21C0.847585 36.8276 1.68142 38.1217 2.95824 39.1401C4.43048 40.3148 6.14375 40.9162 7.98297 41.2028C8.22618 41.2397 8.46938 41.2853 8.71258 41.3266H11.6506C11.7396 41.307 11.8286 41.2788 11.9198 41.2701C13.0859 41.1507 14.2216 40.901 15.3051 40.4472C17.4244 39.5591 18.9184 38.0674 19.6893 35.8874C20.0823 34.7779 20.2321 33.6271 20.2321 32.4524C20.2321 30.8695 20.2321 29.2867 20.2321 27.7038L20.2343 27.7081ZM12.3823 28.8785C9.89819 30.1986 6.86468 29.1173 5.75724 26.5942C5.69426 26.4488 5.63781 26.3033 5.59003 26.1556C5.44672 25.7105 5.37506 25.2502 5.3794 24.7768C5.37506 22.8791 6.52159 21.205 8.2088 20.4842C8.59749 20.317 9.01658 20.2019 9.45522 20.1476C11.4356 19.8957 13.0294 20.6101 14.1304 22.2668C15.6395 24.5402 14.8209 27.5822 12.378 28.8785H12.3823Z" fill="white"/>
<path d="M233.225 26.5269C235.091 26.5269 236.956 26.5247 238.819 26.5226V23.8367C238.8 23.7563 238.767 23.6782 238.763 23.5978C238.739 23.0203 238.595 22.4666 238.43 21.9194C237.718 19.5679 236.359 17.7114 234.174 16.5302C232.259 15.4945 230.201 15.1666 228.064 15.5292C224.97 16.0547 222.731 17.7722 221.378 20.5949C220.423 22.586 220.229 24.6987 220.701 26.8396C221.4 30.0227 223.256 32.2983 226.318 33.4751C228.833 34.4435 231.384 34.3762 233.873 33.3514C236.122 32.4264 237.642 30.774 238.454 28.4789C238.491 28.3769 238.517 28.2727 238.556 28.1424H236.044C235.158 28.1424 234.272 28.1424 233.388 28.1424C233.262 28.1424 233.154 28.1424 233.063 28.2683C232.739 28.7156 232.272 28.9653 231.764 29.1477C231.321 29.3062 230.861 29.3865 230.392 29.4213C229.354 29.4994 228.377 29.3127 227.495 28.7482C226.811 28.3096 226.292 27.7233 226.044 26.933C226.005 26.8114 225.992 26.6811 225.962 26.5269H226.348C228.642 26.5269 230.932 26.5269 233.225 26.5269ZM226.047 22.5035C226.372 21.4417 227.082 20.7208 228.066 20.254C229.46 19.5939 231.215 19.8349 232.329 20.8468C232.904 21.3679 233.223 22.0301 233.382 22.8183H225.979C226.005 22.6989 226.018 22.599 226.047 22.5035Z" fill="white"/>
<path d="M210.655 22.5274C209.437 17.6245 204.58 14.5652 199.633 15.6009C198.335 15.8723 197.166 16.4195 196.23 17.39C196.191 17.4291 196.141 17.4574 196.046 17.529V15.8614H190.706V39.5895C191.145 39.6568 195.82 39.6373 196.035 39.5722C196.037 39.5613 196.041 39.5526 196.044 39.5418C196.048 39.5222 196.052 39.5005 196.052 39.481C196.052 37.0773 196.052 34.6715 196.055 32.2679C196.055 32.2266 196.055 32.1854 196.055 32.1419C196.055 32.1202 196.059 32.1007 196.063 32.0811C196.063 32.0725 196.074 32.0659 196.081 32.0594C196.089 32.0529 196.098 32.0486 196.12 32.0377C196.154 32.0703 196.191 32.1029 196.228 32.1398C196.856 32.7846 197.598 33.2536 198.432 33.5815C199.637 34.0549 200.884 34.1938 202.171 34.1048C203.533 34.0093 204.812 33.6488 206.011 33.0039C209.752 30.9933 211.676 26.6485 210.653 22.5274H210.655ZM201.976 29.2975C199.774 29.8534 197.438 28.7547 196.495 26.7245C195.251 24.0408 196.793 20.9054 199.694 20.2193C202.297 19.6026 204.879 21.2007 205.457 23.7932C205.529 24.1168 205.546 24.4511 205.589 24.779C205.557 26.9112 204.087 28.7634 201.974 29.2975H201.976Z" fill="white"/>
<path d="M79.2044 24.4468C79.1501 23.0506 78.8266 21.7305 78.186 20.4928C76.2295 16.7234 72.1298 14.7584 67.965 15.5922C66.7272 15.8397 65.6111 16.3478 64.6839 17.2272C64.5905 17.3162 64.4972 17.4052 64.3517 17.5442V15.8549H59.0121V39.6026H64.3495V32.0659C64.3712 32.0573 64.3908 32.0464 64.4125 32.0377C64.4559 32.0768 64.5037 32.1137 64.5449 32.155C65.2333 32.865 66.0628 33.3492 66.9878 33.6771C68.1343 34.0809 69.3156 34.1895 70.5251 34.1005C71.854 34.0006 73.1048 33.6445 74.2752 33.0191C77.3891 31.3537 79.3456 28.0316 79.2066 24.4468H79.2044ZM70.4773 29.2411C67.8151 30.0271 65.0835 28.4442 64.4603 25.7518C63.9977 23.7585 65.0075 21.6111 66.8532 20.6492C67.0291 20.558 67.2093 20.4776 67.3917 20.4082C67.9367 20.1997 68.5078 20.0955 69.1028 20.0868C70.397 20.0868 71.6 20.6123 72.4707 21.4699C72.664 21.661 72.8421 21.8673 73.0006 22.0888C73.3958 22.6424 73.6759 23.283 73.7931 23.98C74.1905 26.3054 72.7639 28.568 70.4773 29.2432V29.2411Z" fill="white"/>
<path d="M148.287 23.5935C147.989 21.2333 146.943 19.2509 145.138 17.7027C142.8 15.6986 140.088 15.0146 137.067 15.6052C135.775 15.8571 134.62 16.4173 133.688 17.3748C133.647 17.4161 133.604 17.453 133.512 17.5377C133.491 16.9362 133.523 16.3934 133.491 15.8462H128.173V39.6047H133.502C133.508 37.0752 133.515 34.5651 133.521 32.0073C133.597 32.0681 133.63 32.0898 133.656 32.118C134.292 32.7868 135.052 33.2688 135.91 33.5924C137.944 34.361 140.001 34.3111 142.031 33.6206C146.165 32.2179 148.856 28.1076 148.287 23.5913V23.5935ZM143.01 24.7899C143.01 25.1264 142.971 25.4586 142.897 25.78C142.876 25.8799 142.847 25.9797 142.817 26.0775C142.776 26.2186 142.728 26.3554 142.674 26.49C142.611 26.6442 142.541 26.794 142.463 26.9395C142.194 27.4432 141.829 27.8992 141.388 28.2792C141.369 28.2944 141.351 28.3117 141.332 28.3269C140.761 28.8046 140.064 29.1586 139.271 29.3301C138.978 29.3931 138.687 29.43 138.398 29.4387C136.374 29.5038 134.503 28.277 133.786 26.3532C133.74 26.2338 133.701 26.1079 133.667 25.9776C133.632 25.8473 133.601 25.7148 133.578 25.5802C133.53 25.311 133.504 25.0331 133.504 24.7638C133.504 23.6 133.945 22.523 134.676 21.6979C135.408 20.8728 136.431 20.2974 137.595 20.1324C137.725 20.115 137.857 20.102 137.988 20.0933C138.118 20.0868 138.25 20.0846 138.381 20.0868C139.032 20.1042 139.671 20.2562 140.255 20.5232C140.489 20.6296 140.713 20.7556 140.928 20.8989C141.677 21.3983 142.287 22.1105 142.652 22.9855C142.9 23.5783 143.012 24.1862 143.012 24.779C143.012 24.7812 143.012 24.7834 143.012 24.7855L143.01 24.7899Z" fill="white"/>
<path d="M56.2413 15.8571C55.6593 15.7985 51.1688 15.8245 50.9321 15.8918C50.9039 16.2935 50.9473 16.7017 50.906 17.1469C48.9344 15.7963 46.8107 15.2166 44.4785 15.4554C42.1421 15.6942 40.1704 16.6822 38.5722 18.391C35.6386 21.5242 35.2629 26.2251 37.5125 29.7665C38.6504 31.5579 40.216 32.852 42.2159 33.5555C45.2885 34.6368 48.1896 34.2025 50.9343 32.3786V33.6857H56.2543C56.3195 33.3014 56.3043 16.0764 56.2413 15.8571ZM47.2493 29.3192C44.5719 29.925 42.04 28.2053 41.5145 25.6931C41.0324 23.3829 42.4135 21.0465 44.7239 20.3148C47.3014 19.4984 50.0483 20.964 50.7584 23.5501C50.867 23.9474 50.8995 24.3665 50.969 24.7747C50.9234 26.9395 49.399 28.8329 47.2493 29.3192Z" fill="white"/>
<path d="M168.03 22.0931C167.476 20.1324 166.455 18.4692 164.807 17.2424C162.703 15.6747 160.312 15.1601 157.746 15.5271C154.949 15.9287 152.801 17.3879 151.355 19.8067C150.011 22.0562 149.696 24.5033 150.293 27.0328C151.034 30.1682 152.916 32.3829 155.95 33.5251C158.31 34.4131 160.712 34.3762 163.072 33.5099C165.491 32.6218 167.137 30.9325 168.006 28.5006C168.043 28.3964 168.069 28.29 168.101 28.1793C168.036 28.1684 168.006 28.1576 167.975 28.1576C166.277 28.1576 164.579 28.1576 162.879 28.1532C162.747 28.1532 162.673 28.2075 162.597 28.3052C162.345 28.6353 162.01 28.8611 161.637 29.0348C161.14 29.2649 160.612 29.3822 160.071 29.4321C158.994 29.5298 157.972 29.3605 157.049 28.7699C156.343 28.3183 155.82 27.7146 155.574 26.8982C155.544 26.794 155.533 26.6833 155.507 26.5421H168.373C168.386 26.4162 168.403 26.3272 168.403 26.236C168.412 25.7279 168.427 25.2176 168.421 24.7095C168.408 23.8215 168.264 22.9486 168.023 22.0953L168.03 22.0931ZM162.905 22.8292H155.529C155.6 22.3732 155.765 21.9693 156.024 21.6154C156.951 20.3365 158.208 19.772 159.783 19.9478C160.089 19.9826 160.399 20.0521 160.69 20.1563C161.895 20.5884 162.612 21.4569 162.903 22.6902C162.912 22.7293 162.903 22.7727 162.903 22.8292H162.905Z" fill="white"/>
<path d="M188.804 24.677C188.804 29.8447 184.613 34.0353 179.445 34.0353C174.277 34.0353 170.086 29.8469 170.086 24.677C170.086 19.5071 174.277 15.3186 179.445 15.3186C184.613 15.3186 188.804 19.5092 188.804 24.677Z" fill="#939598"/>
</g>
<defs>
<clipPath id="clip0_4036_139">
<rect width="510" height="49" fill="white"/>
</clipPath>
</defs>
</svg>
