<svg width="340" height="100" viewBox="0 0 340 100" fill="none" xmlns="http://www.w3.org/2000/svg">
<path d="M0.5 16C0.5 7.43959 7.43959 0.5 16 0.5H324C332.56 0.5 339.5 7.43959 339.5 16V84C339.5 92.5604 332.56 99.5 324 99.5H16C7.43959 99.5 0.5 92.5604 0.5 84V16Z" stroke="white" stroke-opacity="0.6"/>
<path d="M132.035 34.0238H137.366V41.5843C137.433 41.5257 137.459 41.5105 137.472 41.4888C138.067 40.5182 138.957 39.9515 140.041 39.6975C141.867 39.2697 143.659 39.3783 145.389 40.1382C145.999 40.4053 146.508 40.8113 146.942 41.3173C147.839 42.366 148.327 43.5841 148.438 44.9477C148.505 45.7771 148.542 46.6087 148.544 47.4404C148.555 50.7408 148.549 54.0411 148.549 57.3415V57.7041C148.308 57.7758 143.75 57.7997 143.198 57.7367C143.194 57.6216 143.185 57.5022 143.185 57.3806C143.185 54.1541 143.185 50.9253 143.185 47.6987C143.185 47.0712 143.087 46.4546 142.87 45.8618C142.475 44.7892 141.643 44.1834 140.497 44.1595C140.167 44.153 139.828 44.1769 139.507 44.2442C138.558 44.4439 137.954 45.0497 137.637 45.9487C137.431 46.5349 137.372 47.1429 137.372 47.7617C137.372 50.9579 137.372 54.1541 137.372 57.3502V57.7411H132.039V34.0238H132.035Z" fill="white"/>
<path d="M172.428 50.5996H177.255C176.873 53.6156 173.892 57.9408 168.5 58.1818C163.373 58.4098 159.23 54.5731 158.77 49.7463C158.266 44.4635 162.101 40.123 166.913 39.5389C172.324 38.881 176.478 42.7286 177.253 46.9192C177.164 46.9279 177.077 46.9453 176.988 46.9453C175.54 46.9453 174.091 46.9453 172.643 46.9496C172.452 46.9496 172.352 46.8888 172.261 46.7173C171.57 45.408 170.506 44.5764 169.054 44.255C166.572 43.7035 164.022 45.3667 163.514 47.8594C162.976 50.5019 164.709 52.9989 167.33 53.4419C169.395 53.7914 171.394 52.7297 172.315 50.8493C172.352 50.7755 172.385 50.6973 172.428 50.6018V50.5996Z" fill="white"/>
<path d="M263.783 34.0282H269.611V57.7476H263.783V34.0282Z" fill="white"/>
<path d="M79.8005 57.7519H74.0027C73.9398 57.5022 73.9267 40.262 73.9919 39.9168H79.6377V42.9609C79.6594 42.9653 79.6811 42.9696 79.7028 42.974C79.7245 42.9327 79.7506 42.8936 79.7679 42.8524C80.4671 41.2195 81.7331 40.2859 83.4399 39.9189C84.3215 39.73 85.2161 39.7105 86.1108 39.8408C86.2106 39.856 86.3084 39.8842 86.4104 39.9059V45.1301C85.9609 45.0628 85.5331 44.9781 85.0989 44.9368C84.1478 44.8435 83.201 44.8652 82.2977 45.2191C80.8081 45.8054 80.0003 46.9171 79.8418 48.4978C79.807 48.8495 79.8027 49.2035 79.8027 49.5574C79.8005 52.1586 79.8027 54.762 79.8027 57.3633V57.7519H79.8005Z" fill="white"/>
<path d="M151.068 39.9189H156.881V57.7432H151.068V39.9189Z" fill="white"/>
<path d="M151.065 38.1298V34.0629C151.291 33.9934 156.466 33.9739 156.878 34.0434V38.1298H151.065Z" fill="white"/>
<path d="M71.2342 51.7721C71.2342 47.9506 71.2342 44.1291 71.2342 40.3098C71.2342 40.1795 71.2255 40.0492 71.2211 39.9233H65.875V41.5561C65.8186 41.5366 65.7947 41.5366 65.7817 41.5235C65.7426 41.491 65.7035 41.454 65.6666 41.4171C65.0173 40.744 64.2334 40.2815 63.3605 39.9667C61.834 39.4174 60.2662 39.3175 58.681 39.6215C56.0536 40.1274 53.9972 41.5105 52.5228 43.7426C51.4979 45.2951 51.031 47.0235 51.0006 48.8734C50.9941 49.2664 51.0419 49.6616 51.0961 50.0524C51.3849 52.1412 52.247 53.9651 53.7583 55.4373C56.1426 57.7606 59.0067 58.6052 62.2769 58.006C63.582 57.7671 64.7415 57.1874 65.6839 56.2255C65.7296 56.1777 65.7882 56.143 65.8772 56.0713C65.8707 56.5903 65.8229 57.0506 65.7122 57.5044C65.33 59.0569 64.4397 60.1599 62.8719 60.6159C61.4388 61.0349 60.0273 60.9177 58.668 60.2967C58.1968 60.0817 57.7777 59.7886 57.5215 59.3218C57.439 59.172 57.3456 59.122 57.1784 59.1242C55.3761 59.1307 53.5716 59.1264 51.7693 59.1285C51.6911 59.1285 51.6151 59.1481 51.5369 59.1568C51.5413 59.2132 51.5391 59.2436 51.5456 59.274C51.8475 60.8916 52.6813 62.1857 53.9581 63.2041C55.4304 64.3788 57.1436 64.9802 58.9829 65.2668C59.2261 65.3037 59.4693 65.3493 59.7125 65.3906H62.6504C62.7395 65.371 62.8285 65.3428 62.9197 65.3341C64.0858 65.2147 65.2214 64.965 66.305 64.5112C68.4243 63.6231 69.9183 62.1314 70.6891 59.9515C71.0822 58.8419 71.232 57.6911 71.232 56.5164C71.232 54.9336 71.232 53.3507 71.232 51.7678L71.2342 51.7721ZM63.3822 52.9425C60.8981 54.2626 57.8646 53.1813 56.7571 50.6582C56.6941 50.5128 56.6377 50.3673 56.5899 50.2196C56.4466 49.7745 56.3749 49.3142 56.3793 48.8408C56.3749 46.9431 57.5215 45.269 59.2087 44.5482C59.5974 44.381 60.0165 44.2659 60.4551 44.2116C62.4355 43.9597 64.0293 44.6741 65.1302 46.3308C66.6394 48.6042 65.8208 51.6462 63.3779 52.9425H63.3822Z" fill="white"/>
<path d="M284.225 50.5909C286.091 50.5909 287.956 50.5888 289.819 50.5866V47.9007C289.799 47.8203 289.767 47.7422 289.763 47.6618C289.739 47.0843 289.595 46.5306 289.43 45.9834C288.718 43.6319 287.359 41.7754 285.174 40.5942C283.259 39.5585 281.201 39.2306 279.064 39.5932C275.969 40.1187 273.731 41.8362 272.378 44.6589C271.422 46.65 271.229 48.7627 271.7 50.9036C272.4 54.0867 274.256 56.3623 277.318 57.5391C279.832 58.5075 282.384 58.4402 284.872 57.4154C287.122 56.4904 288.642 54.838 289.454 52.5429C289.491 52.4409 289.517 52.3367 289.556 52.2064H287.044C286.158 52.2064 285.272 52.2064 284.388 52.2064C284.262 52.2064 284.154 52.2064 284.062 52.3323C283.739 52.7796 283.272 53.0293 282.764 53.2117C282.321 53.3702 281.861 53.4505 281.392 53.4853C280.354 53.5635 279.376 53.3767 278.495 52.8122C277.811 52.3736 277.292 51.7873 277.044 50.997C277.005 50.8754 276.992 50.7451 276.962 50.5909H277.348C279.641 50.5909 281.932 50.5909 284.225 50.5909ZM277.047 46.5675C277.372 45.5057 278.082 44.7848 279.066 44.318C280.46 43.6579 282.215 43.8989 283.329 44.9108C283.904 45.4319 284.223 46.0941 284.382 46.8823H276.979C277.005 46.7629 277.018 46.663 277.047 46.5675Z" fill="white"/>
<path d="M261.655 46.5914C260.437 41.6885 255.579 38.6292 250.633 39.6649C249.334 39.9363 248.166 40.4835 247.23 41.454C247.191 41.4931 247.141 41.5214 247.046 41.593V39.9254H241.706V63.6535C242.145 63.7209 246.82 63.7013 247.035 63.6362C247.037 63.6253 247.041 63.6166 247.043 63.6058C247.048 63.5862 247.052 63.5645 247.052 63.545C247.052 61.1413 247.052 58.7355 247.054 56.3319C247.054 56.2906 247.054 56.2494 247.054 56.2059C247.054 56.1842 247.059 56.1647 247.063 56.1451C247.063 56.1365 247.074 56.1299 247.08 56.1234C247.089 56.1169 247.098 56.1126 247.119 56.1017C247.154 56.1343 247.191 56.1669 247.228 56.2038C247.856 56.8487 248.598 57.3177 249.432 57.6455C250.637 58.1189 251.884 58.2578 253.171 58.1688C254.533 58.0733 255.812 57.7128 257.01 57.068C260.752 55.0573 262.676 50.7125 261.653 46.5914H261.655ZM252.976 53.3615C250.774 53.9174 248.438 52.8187 247.495 50.7885C246.251 48.1048 247.793 44.9694 250.694 44.2833C253.297 43.6666 255.879 45.2647 256.457 47.8572C256.528 48.1808 256.546 48.5152 256.589 48.843C256.557 50.9753 255.087 52.8274 252.974 53.3615H252.976Z" fill="white"/>
<path d="M130.204 48.5108C130.15 47.1147 129.826 45.7945 129.186 44.5569C127.229 40.7875 123.13 38.8224 118.965 39.6562C117.727 39.9037 116.611 40.4118 115.684 41.2912C115.59 41.3802 115.497 41.4692 115.352 41.6082V39.9189H110.012V63.6666H115.349V56.1299C115.371 56.1213 115.391 56.1104 115.412 56.1017C115.456 56.1408 115.504 56.1777 115.545 56.219C116.233 56.929 117.063 57.4132 117.988 57.7411C119.134 58.1449 120.315 58.2535 121.525 58.1645C122.854 58.0646 124.105 57.7085 125.275 57.0832C128.389 55.4178 130.345 52.0956 130.206 48.5108H130.204ZM121.477 53.3051C118.815 54.0911 116.083 52.5082 115.46 49.8158C114.998 47.8225 116.007 45.6751 117.853 44.7132C118.029 44.622 118.209 44.5417 118.392 44.4722C118.937 44.2637 119.508 44.1595 120.103 44.1508C121.397 44.1508 122.6 44.6763 123.471 45.5339C123.664 45.725 123.842 45.9313 124 46.1528C124.396 46.7065 124.676 47.347 124.793 48.044C125.19 50.3695 123.764 52.632 121.477 53.3072V53.3051Z" fill="white"/>
<path d="M199.287 47.6575C198.989 45.2973 197.943 43.3149 196.138 41.7667C193.8 39.7626 191.087 39.0786 188.067 39.6692C186.775 39.9211 185.62 40.4813 184.688 41.4388C184.647 41.4801 184.603 41.517 184.512 41.6017C184.49 41.0002 184.523 40.4574 184.49 39.9102H179.173V63.6687H184.501C184.508 61.1392 184.514 58.6291 184.521 56.0713C184.597 56.1321 184.629 56.1538 184.656 56.1821C185.292 56.8508 186.052 57.3329 186.909 57.6564C188.944 58.425 191.001 58.3751 193.031 57.6846C197.165 56.2819 199.856 52.1716 199.287 47.6553V47.6575ZM194.01 48.8539C194.01 49.1904 193.971 49.5226 193.897 49.844C193.876 49.9439 193.847 50.0438 193.817 50.1415C193.776 50.2826 193.728 50.4194 193.674 50.554C193.611 50.7082 193.541 50.858 193.463 51.0035C193.194 51.5072 192.829 51.9632 192.388 52.3432C192.369 52.3584 192.351 52.3757 192.332 52.3909C191.761 52.8686 191.063 53.2226 190.271 53.3941C189.978 53.4571 189.687 53.494 189.398 53.5027C187.374 53.5678 185.502 52.341 184.786 50.4172C184.74 50.2978 184.701 50.1719 184.666 50.0416C184.632 49.9113 184.601 49.7789 184.577 49.6442C184.53 49.375 184.504 49.0971 184.504 48.8278C184.504 47.664 184.944 46.587 185.676 45.7619C186.408 44.9368 187.431 44.3614 188.595 44.1964C188.725 44.179 188.857 44.166 188.988 44.1573C189.118 44.1508 189.25 44.1486 189.381 44.1508C190.032 44.1682 190.67 44.3202 191.255 44.5872C191.489 44.6936 191.713 44.8196 191.928 44.9629C192.677 45.4623 193.287 46.1745 193.652 47.0495C193.899 47.6423 194.012 48.2503 194.012 48.843C194.012 48.8452 194.012 48.8474 194.012 48.8495L194.01 48.8539Z" fill="white"/>
<path d="M107.241 39.9211C106.659 39.8625 102.169 39.8885 101.932 39.9558C101.904 40.3575 101.947 40.7657 101.906 41.2109C99.9342 39.8603 97.8106 39.2806 95.4784 39.5194C93.1419 39.7582 91.1703 40.7462 89.5721 42.455C86.6384 45.5882 86.2628 50.2891 88.5124 53.8305C89.6502 55.6219 91.2159 56.916 93.2158 57.6195C96.2884 58.7008 99.1894 58.2665 101.934 56.4426V57.7497H107.254C107.319 57.3654 107.304 40.1404 107.241 39.9211ZM98.2492 53.3832C95.5718 53.989 93.0399 52.2694 92.5144 49.7571C92.0323 47.4469 93.4134 45.1105 95.7238 44.3788C98.3013 43.5624 101.048 45.028 101.758 47.6141C101.867 48.0114 101.899 48.4305 101.969 48.8387C101.923 51.0035 100.399 52.8969 98.2492 53.3832Z" fill="white"/>
<path d="M219.03 46.1571C218.476 44.1964 217.455 42.5332 215.807 41.3064C213.703 39.7387 211.312 39.2241 208.746 39.5911C205.949 39.9928 203.801 41.4519 202.355 43.8707C201.011 46.1202 200.696 48.5673 201.293 51.0968C202.034 54.2322 203.916 56.447 206.95 57.5891C209.31 58.4771 211.712 58.4402 214.072 57.5739C216.491 56.6858 218.137 54.9965 219.006 52.5647C219.043 52.4604 219.069 52.354 219.101 52.2433C219.036 52.2324 219.006 52.2216 218.975 52.2216C217.277 52.2216 215.579 52.2216 213.879 52.2172C213.747 52.2172 213.673 52.2715 213.597 52.3692C213.345 52.6993 213.01 52.9251 212.637 53.0988C212.14 53.329 211.612 53.4462 211.071 53.4961C209.994 53.5939 208.972 53.4245 208.049 52.8339C207.343 52.3823 206.82 51.7786 206.574 50.9622C206.544 50.858 206.533 50.7473 206.507 50.6061H219.373C219.386 50.4802 219.403 50.3912 219.403 50.3C219.412 49.7919 219.427 49.2816 219.421 48.7735C219.408 47.8855 219.264 47.0126 219.023 46.1593L219.03 46.1571ZM213.905 46.8932H206.529C206.6 46.4372 206.765 46.0333 207.024 45.6794C207.951 44.4005 209.208 43.836 210.783 44.0119C211.089 44.0466 211.399 44.1161 211.69 44.2203C212.895 44.6524 213.612 45.5209 213.903 46.7542C213.912 46.7933 213.903 46.8367 213.903 46.8932H213.905Z" fill="white"/>
<path d="M239.804 48.741C239.804 53.9087 235.613 58.0993 230.445 58.0993C225.277 58.0993 221.086 53.9109 221.086 48.741C221.086 43.5711 225.277 39.3826 230.445 39.3826C235.613 39.3826 239.804 43.5732 239.804 48.741Z" fill="#939598"/>
</svg>
