<svg width="340" height="100" viewBox="0 0 340 100" fill="none" xmlns="http://www.w3.org/2000/svg">
<path d="M0.5 16C0.5 7.43959 7.43959 0.5 16 0.5H324C332.56 0.5 339.5 7.43959 339.5 16V84C339.5 92.5604 332.56 99.5 324 99.5H16C7.43959 99.5 0.5 92.5604 0.5 84V16Z" stroke="white" stroke-opacity="0.6"/>
<path d="M247.766 49.3468C247.766 54.5146 243.575 58.7052 238.407 58.7052C233.239 58.7052 229.048 54.5167 229.048 49.3468C229.048 44.1769 233.239 39.9885 238.407 39.9885C243.575 39.9885 247.766 44.1791 247.766 49.3468Z" fill="#939598"/>
<path d="M288.436 40.1253C283.628 40.1253 279.422 43.9533 279.422 49.4684C279.422 54.6513 283.268 58.8398 288.827 58.8398C292.913 58.8398 296.309 56.6989 297.48 52.873H292.101C291.591 53.7177 290.273 54.178 288.92 54.178C286.275 54.178 284.959 52.3563 284.868 51.2402H297.749C298.351 44.8522 294.475 40.1253 288.434 40.1253H288.436ZM284.87 47.5685C285.231 45.6404 287.085 44.5851 288.588 44.5851C290.421 44.5851 291.977 45.5796 292.338 47.5685H284.87Z" fill="white"/>
<path d="M217.979 40.1405C213.171 40.1405 208.965 43.9685 208.965 49.4836C208.965 54.6665 212.811 58.855 218.37 58.855C222.456 58.855 225.852 56.7141 227.023 52.8882H221.644C221.134 53.7329 219.816 54.1932 218.465 54.1932C215.82 54.1932 214.502 52.3715 214.413 51.2554H227.294C227.896 44.8674 224.02 40.1405 217.979 40.1405ZM214.411 47.5859C214.772 45.6578 216.626 44.6025 218.129 44.6025C219.961 44.6025 221.518 45.597 221.879 47.5859H214.411Z" fill="white"/>
<path d="M271.711 34.6557H277.544V58.4034H271.711V34.6557Z" fill="white"/>
<path d="M192.408 56.7054H192.471C193.626 58.0125 195.391 58.69 197.176 58.8311C197.498 58.8398 197.741 58.8398 197.91 58.8398C203.078 58.8398 207.269 54.6535 207.269 49.4858C207.269 44.3181 203.078 40.1253 197.91 40.1253C195.88 40.1253 193.784 40.7745 192.471 42.2575H192.406V40.5617H187.079V64.3419H192.406V56.7054H192.408ZM197.174 44.7871C199.808 44.7871 201.943 46.8911 201.943 49.4836C201.943 52.0762 199.808 54.1802 197.174 54.1802C194.54 54.1802 192.406 52.0783 192.406 49.4836C192.406 46.8889 194.54 44.7871 197.174 44.7871Z" fill="white"/>
<path d="M254.974 56.7054H255.037C256.192 58.0125 257.957 58.69 259.742 58.8311C260.064 58.8398 260.307 58.8398 260.478 58.8398C265.646 58.8398 269.837 54.6535 269.837 49.4858C269.837 44.3181 265.646 40.1253 260.478 40.1253C258.448 40.1253 256.353 40.7745 255.039 42.2575H254.974V40.5617H249.647V64.3419H254.974V56.7054ZM259.738 44.7871C262.372 44.7871 264.506 46.8911 264.506 49.4836C264.506 52.0762 262.372 54.1802 259.738 54.1802C257.104 54.1802 254.969 52.0783 254.969 49.4836C254.969 46.8889 257.104 44.7871 259.738 44.7871Z" fill="white"/>
<path d="M175.822 40.1253C171.015 40.1253 166.808 43.9533 166.808 49.4684C166.808 54.6513 170.654 58.8398 176.213 58.8398C180.3 58.8398 183.696 56.6989 184.866 52.873H179.488C178.977 53.7177 177.659 54.178 176.309 54.178C173.664 54.178 172.348 52.3563 172.257 51.2424H185.138C185.739 44.8544 181.863 40.1274 175.824 40.1274M172.257 47.5685C172.617 45.6404 174.472 44.5851 175.974 44.5851C177.807 44.5851 179.364 45.5796 179.724 47.5685H172.257Z" fill="white"/>
<path d="M153.719 40.5617H159.378V43.7275H159.447C160.305 41.465 162.294 40.4249 164.798 40.4249C165.243 40.4249 165.725 40.4597 166.17 40.5617V45.8011C165.417 45.5948 164.728 45.5318 163.94 45.5318C161.059 45.5318 159.549 47.3601 159.549 49.5922V58.4055H153.719V40.5617Z" fill="white"/>
<path d="M145.648 40.5595V41.8667H145.583C144.049 40.7701 142.171 40.1253 140.143 40.1253C134.975 40.1253 130.786 44.3137 130.786 49.4815C130.786 54.6492 134.975 58.8398 140.143 58.8398C142.173 58.8398 144.049 58.1949 145.583 57.0962H145.648V58.4034H150.974V40.5595H145.648ZM140.879 54.178C138.245 54.178 136.111 52.0762 136.111 49.4836C136.111 46.8911 138.245 44.7871 140.879 44.7871C143.513 44.7871 145.648 46.8889 145.648 49.4836C145.648 52.0783 143.513 54.178 140.879 54.178Z" fill="white"/>
<path d="M47.2441 52.3324C47.4265 53.6265 48.4557 54.5602 50.2754 54.5602C51.6999 54.5602 52.6401 53.9283 52.6401 53.2053C52.6401 52.3324 51.6391 52.0306 49.7912 51.6093C46.7577 50.9167 42.4234 50.1632 42.4234 46.003C42.4234 42.6874 45.3049 40.1274 50.004 40.1274C53.9451 40.1274 57.4933 42.2988 57.5237 46.3656H52.6119C52.4599 45.432 51.7629 44.4375 49.852 44.4375C48.3363 44.4375 47.6393 45.0411 47.6393 45.673C47.6393 47.9919 57.9167 46.1246 57.9167 52.9642C57.9167 56.3081 54.9766 58.8398 50.0952 58.8398C45.2138 58.8398 42.3952 56.4904 42 52.3324H47.2462H47.2441Z" fill="white"/>
<path d="M68.6155 40.1231C63.4475 40.1231 59.2566 44.3137 59.2566 49.4815C59.2566 54.6492 63.4475 58.8398 68.6155 58.8398C73.7836 58.8398 77.9745 54.6513 77.9745 49.4815C77.9745 44.3116 73.7858 40.1231 68.6155 40.1231ZM68.6155 54.178C66.0207 54.178 63.9187 52.0762 63.9187 49.4815C63.9187 46.8867 66.0207 44.7849 68.6155 44.7849C71.2104 44.7849 73.3102 46.8867 73.3102 49.4815C73.3102 52.0762 71.2083 54.178 68.6155 54.178Z" fill="white"/>
<path d="M99.2438 40.5595H101.847V44.7871H99.2438V58.4055H93.4113V44.7871H90.8077V40.5595H93.4113V35.5829H99.2438V40.5595Z" fill="white"/>
<path d="M109 40.5595L111.669 51.4378H111.734L114.661 40.5595H119.16L122.12 51.4378H122.183L124.852 40.5595H130.784L125.319 58.4055H119.933L116.943 47.0822H116.878L113.888 58.4055H108.503L103.037 40.5595H109Z" fill="white"/>
<path d="M80.6866 44.7871H78.9429V40.5595H80.6866V39.4652C80.9363 34.4495 85.1489 34 87.7546 34H89.431V38.0191H87.9153C87.4658 38.0191 86.5191 38.1798 86.5191 39.691V40.5595H89.4288V44.7871H86.5191V58.4055H80.6866V44.7871Z" fill="white"/>
</svg>
