<svg width="18" height="18" viewBox="0 0 18 18" fill="none" xmlns="http://www.w3.org/2000/svg">
<path d="M9.00311 11.2617C11.0377 11.2905 13.0477 11.7107 14.9234 12.4993C16.9756 13.3244 18.0017 14.4034 18.0017 15.7363V18H0V15.7363C0 14.4034 1.0261 13.3244 3.0783 12.4993C4.95402 11.7107 6.96404 11.2905 8.99861 11.2617H9.00311ZM9.00311 8.99801C8.41469 9.00599 7.83088 8.8933 7.2877 8.6669C6.74452 8.44049 6.2535 8.10517 5.84494 7.68163C5.42208 7.27314 5.08734 6.7824 4.86134 6.23964C4.63533 5.69688 4.52285 5.11359 4.53081 4.52571C4.52404 3.93362 4.63718 3.34628 4.86341 2.79907C5.08964 2.25186 5.42428 1.7561 5.84719 1.34165C6.25648 0.917326 6.74708 0.57983 7.28969 0.349317C7.83231 0.118804 8.41581 0 9.00536 0C9.59491 0 10.1784 0.118804 10.721 0.349317C11.2637 0.57983 11.7543 0.917326 12.1635 1.34165C12.586 1.75629 12.9203 2.25214 13.1461 2.79934C13.3719 3.34654 13.4847 3.93378 13.4777 4.52571C13.4856 5.11413 13.373 5.69794 13.1466 6.24112C12.9201 6.7843 12.5848 7.27533 12.1613 7.68388C11.7525 8.10702 11.2614 8.44192 10.7183 8.66793C10.1751 8.89395 9.59137 9.00628 9.00311 8.99801Z" fill="#737476"/>
</svg>
